<?xml version="1.0" encoding="iso-8859-1"?>
<!-- Generator: Adobe Illustrator 19.0.0, SVG Export Plug-In . SVG Version: 6.00 Build 0)  -->
<svg height="48" width="48" xmlns="http://www.w3.org/2000/svg" xmlns:xlink="http://www.w3.org/1999/xlink" version="1.1"
	id="Capa_1" x="0px" y="0px" viewBox="0 0 512 512" style="enable-background:new 0 0 512 512;" xml:space="preserve">
	<circle style="fill:#F1F4FB;" cx="256" cy="256" r="248.5" />
	<path style="fill:#DDE3F1;"
		d="M352.194,424.339c-137.243,0-248.5-111.258-248.5-248.5c0-54.017,17.29-103.966,46.56-144.733  C65.903,70.838,7.5,156.582,7.5,256c0,137.242,111.257,248.5,248.5,248.5c83.226,0,156.841-40.955,201.94-103.767  C425.848,415.85,390.018,424.339,352.194,424.339z" />
	<g>
		<path style="fill:#5B5D6E;"
			d="M504.5,256C504.5,118.757,393.243,7.5,256,7.5c68.623,0,124.253,55.629,124.253,124.25   S324.623,256,256,256c-68.621,0-124.25,55.629-124.25,124.25S187.379,504.5,256,504.5C393.243,504.5,504.5,393.242,504.5,256z" />
		<circle style="fill:#5B5D6E;" cx="256" cy="131.75" r="40.08" />
	</g>
	<path style="fill:#464655;"
		d="M352.194,424.339c-84.305,0-158.753-42.02-203.683-106.218  c-10.597,18.291-16.761,39.47-16.761,62.129c0,68.621,55.629,124.25,124.25,124.25c83.226,0,156.841-40.955,201.94-103.767  C425.848,415.85,390.018,424.339,352.194,424.339z" />
	<circle style="fill:#F1F4FB;" cx="256" cy="380.25" r="40.08" />
	<path style="fill:#DDE3F1;"
		d="M256,420.331c8.447,0,16.26-2.642,22.722-7.104c-22.344-6.916-43.298-16.937-62.453-29.499  C218.06,404.208,235.056,420.331,256,420.331z" />
	<path
		d="M437.02,74.98C388.667,26.629,324.38,0,256,0S123.333,26.629,74.98,74.98C26.629,123.333,0,187.62,0,256  s26.629,132.667,74.98,181.02C123.333,485.371,187.62,512,256,512s132.667-26.629,181.02-74.98C485.371,388.667,512,324.38,512,256  S485.371,123.333,437.02,74.98z M426.413,426.413C380.894,471.932,320.374,497,256,497c-64.376,0-116.75-52.374-116.75-116.75  S191.624,263.5,256,263.5c72.647,0,131.75-59.103,131.75-131.75c0-4.247-0.205-8.535-0.609-12.747  c-0.396-4.124-4.063-7.144-8.182-6.75c-4.123,0.396-7.145,4.059-6.75,8.182c0.359,3.737,0.541,7.544,0.541,11.314  c0,64.376-52.374,116.75-116.75,116.75c-72.647,0-131.75,59.103-131.75,131.75c0,41.095,18.917,77.852,48.496,102.032  c-32.368-11.888-62.049-30.76-87.159-55.87C40.068,380.894,15,320.374,15,256S40.068,131.106,85.587,85.587S191.626,15,256,15  c24.155,0,47.33,7.31,67.021,21.141c19.261,13.528,33.84,32.258,42.161,54.164c1.138,2.996,3.987,4.839,7.013,4.839  c0.885,0,1.785-0.158,2.662-0.491c3.872-1.471,5.819-5.802,4.348-9.674c-8.229-21.664-21.878-40.571-39.75-55.186  c32.29,11.893,61.9,30.737,86.958,55.795C471.932,131.106,497,191.626,497,256S471.932,380.894,426.413,426.413z" />
	<path
		d="M291.992,361.06c-3.951,1.242-6.147,5.453-4.905,9.404c0.991,3.151,1.494,6.443,1.494,9.786  c0,17.965-14.616,32.581-32.581,32.581s-32.581-14.616-32.581-32.581s14.616-32.581,32.581-32.581c4.543,0,8.935,0.915,13.054,2.718  c3.795,1.662,8.218-0.067,9.878-3.862c1.662-3.794-0.067-8.217-3.862-9.878c-6.028-2.64-12.444-3.978-19.071-3.978  c-26.236,0-47.581,21.345-47.581,47.581s21.345,47.581,47.581,47.581s47.581-21.345,47.581-47.581c0-4.871-0.735-9.677-2.184-14.286  C300.153,362.013,295.943,359.815,291.992,361.06z" />
	<path
		d="M256,84.169c-26.236,0-47.581,21.345-47.581,47.581s21.345,47.581,47.581,47.581s47.581-21.345,47.581-47.581  S282.236,84.169,256,84.169z M256,164.331c-17.965,0-32.581-14.616-32.581-32.581S238.035,99.169,256,99.169  s32.581,14.616,32.581,32.581S273.965,164.331,256,164.331z" />
	<g>
	</g>
	<g>
	</g>
	<g>
	</g>
	<g>
	</g>
	<g>
	</g>
	<g>
	</g>
	<g>
	</g>
	<g>
	</g>
	<g>
	</g>
	<g>
	</g>
	<g>
	</g>
	<g>
	</g>
	<g>
	</g>
	<g>
	</g>
	<g>
	</g>
</svg>